<?xml version="1.0" encoding="utf-8"?>
<!-- Generator: Adobe Illustrator 26.5.3, SVG Export Plug-In . SVG Version: 6.00 Build 0)  -->
<svg version="1.1" id="Layer_2_00000158732584276223089320000007511118795129380799_"
	 xmlns="http://www.w3.org/2000/svg" xmlns:xlink="http://www.w3.org/1999/xlink" x="0px" y="0px" viewBox="0 0 234.6 234.6"
	 style="enable-background:new 0 0 234.6 234.6;" xml:space="preserve">
<style type="text/css">
	.st0{fill:#E6F0F9;}
</style>
<g id="Layer_2-2">
	<g id="Layer_1-2">
		<path class="st0" d="M117.3,234.6C52.6,234.6,0,182,0,117.3S52.6,0,117.3,0s117.3,52.6,117.3,117.3S182,234.6,117.3,234.6
			L117.3,234.6L117.3,234.6z M117.3,10.6c-58.8,0-106.7,47.9-106.7,106.7S58.5,224,117.3,224S224,176.1,224,117.3
			S176.1,10.6,117.3,10.6L117.3,10.6z"/>
	</g>
	<path class="st0" d="M111.3,102.7c-7.8,7.8-14,16.6-18.9,26.8c-9.2-5.4-18.2-10.7-27.4-16.2c5.8-12.7,13.4-23.6,23.5-33.3
		C96.1,87.6,103.6,95.1,111.3,102.7z M113.4,100.8c7.6-7,16-12.3,25.9-16.2c-2.2-3.9-4.1-7.6-6.3-11.1c-2.9-4.7-6-9.2-8.9-13.8
		c-1-1.5-2-1.7-3.6-1.1c-6.2,2.6-12.2,5.5-17.6,9.6c-4.1,3.2-8.3,6.3-12.6,9.5C98.3,85.7,105.8,93.2,113.4,100.8L113.4,100.8z
		 M57.3,144.4c-0.2,8.6-1.5,6.1,5.9,9.5c0.4,0.2,0.8,0.4,1.3,0.5c6.8,2.8,13.8,4.6,21.3,6c-0.4-10.1,2-19.5,5.4-28.5
		c-9.2-5.4-18.2-10.8-27.4-16.2C60.2,125.1,57.6,134.5,57.3,144.4L57.3,144.4z M68.3,62.7c-9.5,9.2-17,19.7-22.4,31.7
		c-0.3,0.6-0.1,1.8,0.3,2.2c5.3,5,10.6,9.9,16.3,15.2c6.1-13.1,14-24,23.9-33.8c-5.9-5.4-11.7-10.5-17.3-15.6
		C68.6,62.6,68.4,62.6,68.3,62.7L68.3,62.7z M126.2,57.7c5.1,8.2,10.1,16.4,15.1,24.6c0.8,1.3,0.8,1.3,1.9,1c5-1.1,8.3-2.2,13.4-2.9
		c3.2-0.4,9-0.3,12.4-0.3c-0.8-3.6-1.4-7.1-2.5-10.4c-1.4-4.2-3.1-8.3-4.9-12.3c-1.2-2.6-2.9-4.7-6.3-4.6c-3.6,0.2-7.3-0.2-10.9,0
		c-6.3,0.4-12.4,1.7-18.5,3.8C125.9,57.2,126,57.5,126.2,57.7L126.2,57.7z M103.8,64.3c5.3-3.4,11.1-6.1,16.6-9.2
		c-3.8-5.5-9.2-9.9-15-13.8c-0.9-0.6-2.2-1.2-3.1-0.9c-2.5,0.8-5.1,1.7-7.4,3c-4.9,2.9-9.8,5.9-14.6,9.2c-3.3,2.3-6.4,5-9.5,7.5
		c6,5.4,11.8,10.6,17.3,15.6C93.5,71.8,98.4,67.7,103.8,64.3L103.8,64.3z M95.1,130.9c10.4,4.5,20.9,9,31,13.4
		c3.7-5.2,7-9.9,10.4-14.8c-7.6-8.1-15.3-16.3-23.1-24.6C107.4,109.8,98.2,122.8,95.1,130.9L95.1,130.9z M152.8,118.6
		c-3.4-9.2-7-18.3-10.4-27.4c-0.3-0.9-0.8-1.8-1.2-2.7c-0.7-1.7-1.7-1.8-3.1-1c-3.7,2.1-7.8,3.7-11.4,6c-4,2.6-7.8,4.9-11.4,9
		c8.1,8.7,15.5,17,23,25.1c4.7-2.9,9.5-5.8,14.3-8.8C152.7,119,152.8,118.8,152.8,118.6L152.8,118.6z M88.5,158.7
		c0,1.9,0.7,2.6,2.4,2.7c9.1,0.4,18.2,0.8,27.4,1.1c1.4,0.1,2.8-0.2,3.8-0.3c1.1-5.4,2-10.4,2.9-15.1c-10.5-4.3-21-8.6-31.6-12.9
		C90.6,141.5,88.6,149.9,88.5,158.7L88.5,158.7z M37.6,132.5c0,1,0.3,2,0.8,2.8c4,6.1,9.5,10.5,16,14.3c-0.3-12.6,2.5-24.4,7-35.4
		c-6-5.2-11.7-10.2-17.5-15.3C39.6,109.6,37,120.8,37.6,132.5L37.6,132.5z M155.9,117.6c4.6-0.5,9.3-1,14.1-1.5
		c1.2-10.7,1.1-21.6-0.5-32.7c-9-1.7-17.8-0.3-26.3,2.6C147.5,96.9,151.8,107.5,155.9,117.6L155.9,117.6z M59.6,165.2
		c1.7,5,3.7,10,7.2,14.1c1.1,1.3,2.6,2.7,4.1,3.2c6.9,2.5,14,3.4,21.3,3.1c0.5,0,0.9-0.2,1.5-0.3c-4.2-6.1-6.6-12.8-7.5-19.9
		c-0.2-1.5-0.7-2.1-2.1-2.4c-4.9-1.2-9.8-2.3-14.6-3.8c-4-1.2-7.8-3-12-4.6C58.2,158.4,58.5,162,59.6,165.2L59.6,165.2z M89.7,169.5
		c1.5,4.1,3.2,8.1,4.9,12c1.5,3.5,2.4,3.9,6.1,3.3c7.1-1,13.9-2.9,20.5-5.7c1.9-0.8,3.8-1.5,5.8-2.3c-1.7-4.1-3.2-7.9-4.5-11.2
		c-11.1-0.3-22.3-0.7-33.5-1C89.2,165.9,89.1,167.8,89.7,169.5L89.7,169.5z M122.6,53.3c0.8,1.1,1.6,0.7,2.6,0.5
		c6.5-1.3,13-2.8,19.7-3.7c3.9-0.5,7.9,0,11.9,0c-5-6.9-9.6-11-15.4-13.3c-6-2.5-12.3-2-18.5-1.7c-5.4,0.3-10.7,2.1-16.5,3.4
		C112.8,42.9,118.3,47.5,122.6,53.3z M173.5,100.7c0,5.5-0.4,11.1-0.6,16.1c3.7,2.1,7.2,4,10.8,6c3.9-8,6.8-16.6,7.8-25.8
		c0.1-1-0.7-2.3-1.5-3.1c-4.9-4.9-10.7-8.3-17.4-9.8C173,89.7,173.5,95.2,173.5,100.7L173.5,100.7z M167.2,64.5
		c1.2,3.8,2.6,8.8,3.5,12.6c1,3.8,0.3,3.4,2.2,4.1c7.1,1.7,13.8,5.2,19.1,10.5c0.1-19.6-7.1-30.7-28.6-37.2
		C164.9,58.1,165.9,60.7,167.2,64.5L167.2,64.5z M129.9,180c-0.6-0.4-1.8-0.7-2.4-0.4c-7,3.3-14.3,5.7-22,7.2
		c-1.9,0.4-3.8,0.8-6,1.2c5.2,5.2,11.3,8.4,18.2,10c0.8,0.2,1.8-0.1,2.6-0.3c7.3-2.3,13.1-6.9,18.4-11.7
		C135.7,183.9,132.9,181.9,129.9,180L129.9,180z M200.6,120.8c0.3-0.9,0.3-1.9,0.2-2.9c-0.2-6.1-2.8-11.4-5.1-16.8
		c-0.3-0.6-0.8-1.2-1.3-1.9c-0.9,3.8-1.5,7.4-2.7,10.8c-1.6,4.8-3.6,9.4-5.4,14.1c-0.3,0.7-0.5,1.7-0.2,2.3c1.4,3.3,3,6.6,4.5,9.8
		C194.8,131.9,198.7,127,200.6,120.8L200.6,120.8z M62.5,57.5c-0.4-0.3-0.8-0.7-1.2-0.7c-0.8,0-1.9-0.2-2.3,0.2
		c-7.5,7.2-13.3,15.6-17.8,25c-1.6,3.4-0.6,7.6,1.9,10.1c3.4-5.5,6.6-11.2,10.4-16.6c3.8-5.4,8.3-10.3,12.6-15.6
		C65,59.3,63.8,58.4,62.5,57.5L62.5,57.5z M62.8,178.5c-1.2-2-2.4-3.9-3.3-5.8c-2.5-5.3-3.8-11-4.5-16.8c-0.2-1.2-0.6-2.8-1.5-3.3
		c-5.4-3.4-10.5-7.1-14.8-11.9C41.1,157.1,54.3,174.4,62.8,178.5z M157.2,153c-6.1-7-12.3-13.9-18.8-21.4c-3.2,4.7-6.3,9-9.6,13.7
		c9.9,2.9,19,5.5,28.1,8.2L157.2,153L157.2,153z M159.2,151c0.1,0,0.3,0,0.5-0.1c-1.9-9.5-3.7-19-5.6-28.6l-1-0.4
		c-4.1,2.6-8.1,5.1-12.4,7.8C147.1,137.2,153.1,144.1,159.2,151L159.2,151z M87.8,38.2c-7,2.8-13.6,6.3-19.6,10.9
		c-2,1.5-3.9,3.2-5.9,4.8c1.7,1.2,3.3,2.2,4.7,3.4c1.2,1,2,0.8,3.3-0.2c5.3-4.1,10.7-8.3,16.3-12c3.9-2.6,8.3-4.6,12.6-7
		C95.3,36.6,91.5,36.7,87.8,38.2L87.8,38.2z M125,161.9c10.8-1,20.6-3.2,30.3-6c-8.9-2.6-17.9-5.2-27.6-8
		C126.8,152.6,126,157.1,125,161.9z M169.5,119.5c-4.7-0.3-9.1-0.2-13.1,1.7c1.1,4.9,2.1,9.5,3,14.2c0.9,4.7,1.7,9.4,2.5,14
		C165.5,139.8,168.2,129.9,169.5,119.5z M112.4,199.3c-5.9-2-10.8-5.1-14.9-9.4c-1.1-1.1-2.1-1.5-3.6-1.5c-7,0.3-14-0.1-20.9-2.2
		C80.4,194.9,105.5,202.2,112.4,199.3z M143.2,186.3c-0.5,0-1,0.3-1.4,0.6c-5.1,4.7-10.4,9-16.7,12.4c5.4-0.4,10.7-1,16-2
		c2.6-0.5,5.3-1.4,7.7-2.6c3.7-1.9,5.7-5.4,7.3-8.9C151.8,186,147.5,186.1,143.2,186.3L143.2,186.3z M154,159.7
		c-9.3,1.8-18.7,3.7-28.6,5.7c1.3,3.3,2.7,6.6,4.2,10.4C138.7,171,146.9,165.8,154,159.7z M169.1,144.7c4-5.6,8-11.2,11.9-17
		c0.5-0.7,0.6-2.3,0.1-2.7c-2.4-2.4-5.2-4.1-8.3-4.7c-2.5,9.7-4.9,19.2-7.2,28.3C166.6,147.7,168,146.3,169.1,144.7z M140,182.6
		c0.7,0.3,2-0.1,2.5-0.6c5.8-6.2,10.2-13.3,13.8-19.9c-7.6,5.1-15.8,10.6-24.6,16.4C134.5,179.9,137.2,181.4,140,182.6L140,182.6z
		 M168,151c-0.3,0.1-0.1,0.1,0.2-0.1c5.4-3.1,10.9-5.9,16.1-9.2c3.7-2.3,3.9-3.4,2.3-7.6c-0.7-1.9-1.5-3.7-2.1-5.3
		C178.8,136.4,173.2,143.9,168,151z M195.4,149.1c1.8-5.6,3.4-11.2,5-16.8c0.4-1.4,0.4-2.8,0.5-4.1c-3,3.6-6.1,7.1-9,10.7
		c-0.7,0.8-1.2,1.9-1.4,3c-0.7,4.3-1.2,8.7-1.8,13.1C192,154.4,194.4,152.4,195.4,149.1L195.4,149.1z M155.8,182.4
		c0.9-0.2,2.1-1.5,2.2-2.4c0.9-6.1,1.6-12.3,2.4-18.4c-2.7,3.7-4.8,7.6-7.2,11.2c-2.5,3.7-5.2,7.2-8.2,11.3
		C148.8,183.5,152.3,183.2,155.8,182.4L155.8,182.4z M183.3,155.8c0.6,0,1.5-0.4,1.6-0.9c1.1-3.9,2.1-7.9,3.1-11.8
		c-7.4,4.2-14.4,8.1-21.9,12.4C172,155.6,177.6,155.7,183.3,155.8L183.3,155.8z M183.5,159.1c-6.6-0.5-12.7-0.9-18.7-1.3
		c3.2,4.2,6.5,8.4,10.2,13.1C177.9,166.9,180.6,163,183.5,159.1L183.5,159.1z M163,159.8c-0.5,6.9-1,13.6-1.6,20.7
		c3.7-2.4,7.3-4.9,11.4-7.5C169.3,168.3,166.1,164,163,159.8L163,159.8z M35.2,120.6c1-7.8,3.1-15.4,5.9-22.7
		c0.3-0.8,0.7-1.9,0.4-2.6c-0.9-1.9-2.1-3.7-3.2-5.4c-3.9,11.9-5.5,24.1-3.5,36.6C34.9,124.5,34.9,122.5,35.2,120.6L35.2,120.6z
		 M151.8,39.9c2.4,3,5.2,6.3,8,9.7c0.6,0.7,1.3,1.3,2.1,1.6c5.1,1.9,10.2,3.7,14.5,5.3C173,51.7,157.7,41.4,151.8,39.9L151.8,39.9z
		 M160.8,183.7c-0.4,0.2-0.8,0.7-1.1,1.1c-1.1,2.1-2.1,4.3-3.3,6.8c6.7-3.5,12.5-7.5,17.8-12.3c1.9-1.7,1.8-1.9,0-3.5
		C169.7,178.5,165.3,181.1,160.8,183.7z M191.4,157.4c-1.2,0.3-2.5,0.5-3.6,0.9c-0.6,0.2-1.2,0.8-1.6,1.4c-2.9,4-5.6,8.1-8.6,12.1
		c-1.3,1.7-1.3,2.9,0.8,4.6c4.6-6.3,9.1-12.4,13.6-18.6C191.7,157.6,191.5,157.5,191.4,157.4L191.4,157.4z M194.9,94
		c0,0.6,0.4,1.2,0.7,1.8c1.6,3.2,3.3,6.3,4.9,9.4c0.3,0.6,0.5,1.3,0.8,1.9c-0.9-9.1-3.2-17.8-7.1-26.3
		C194.4,85.4,194.6,89.7,194.9,94L194.9,94z M120.3,32c-14.3-0.3-22.7,2.8-22.7,3c1.8,0.4,4.2,1.2,6.5,1.3c5.4-1,10.2-2.1,20.6-3.7
		C124.8,32.5,122.3,32.1,120.3,32L120.3,32z"/>
</g>
</svg>
