<?xml version="1.0" encoding="utf-8"?>
<!-- Generator: Adobe Illustrator 26.5.3, SVG Export Plug-In . SVG Version: 6.00 Build 0)  -->
<svg version="1.1" id="Layer_2_00000008108900512643610870000010900857060293890692_"
	 xmlns="http://www.w3.org/2000/svg" xmlns:xlink="http://www.w3.org/1999/xlink" x="0px" y="0px" viewBox="0 0 234.6 234.6"
	 style="enable-background:new 0 0 234.6 234.6;" xml:space="preserve">
<style type="text/css">
	.st0{fill:#E6F0F9;}
</style>
<g id="Layer_1-2">
	<path class="st0" d="M117.3,234.6C52.6,234.6,0,182,0,117.3S52.6,0,117.3,0s117.3,52.6,117.3,117.3S182,234.6,117.3,234.6
		L117.3,234.6z M117.3,10.6c-58.8,0-106.7,47.9-106.7,106.7S58.5,224,117.3,224S224,176.1,224,117.3S176.1,10.6,117.3,10.6z"/>
</g>
<g>
	<path class="st0" d="M170.1,143.3c3.7-5.1,7.3-10.3,10.9-15.6c0.5-0.7,0.6-2.3,0.1-2.7c-2.4-2.4-5.2-4.1-8.3-4.7
		c-1.8,6.9-3.5,13.8-5.2,20.5L170.1,143.3z"/>
	<path class="st0" d="M154.3,83c0.6,3.3,0.9,6.6,0.9,10c0.1,5.9-0.8,11.8-2.4,17.3c1,2.4,1.9,4.8,2.9,7.2c4.7-0.5,9.3-1,14.1-1.5
		c1.3-10.8,1.1-21.7-0.5-32.9C164.3,82.3,159.3,82.3,154.3,83z"/>
	<path class="st0" d="M190.2,93.6c-4.9-4.9-10.7-8.3-17.5-9.8c0.3,5.7,0.8,11.2,0.9,16.7c0,5.6-0.4,11.1-0.5,16.2
		c3.7,2.1,7.2,4,10.8,6c3.9-8,6.8-16.7,7.8-25.9C191.7,95.8,190.9,94.4,190.2,93.6z"/>
	<path class="st0" d="M94.1,181.8c1.5,3.5,2.4,3.9,6.2,3.4c7.1-1,14-3,20.7-5.7c1.9-0.8,3.8-1.5,5.8-2.3c-1.7-4.1-3.2-7.9-4.5-11.3
		c-11.2-0.3-22.4-0.7-33.7-1c0.2,1.4,0.1,3.3,0.7,4.9C90.6,173.8,92.3,177.8,94.1,181.8z"/>
	<path class="st0" d="M144.3,167.2l-4.5-4.5c-4.8,1-9.7,1.9-14.7,2.9c1.3,3.3,2.7,6.7,4.2,10.4C134.6,173.3,139.6,170.3,144.3,167.2
		z"/>
	<path class="st0" d="M186.6,134.2c-0.7-1.9-1.5-3.7-2.1-5.3c-4.1,5.5-8.2,11.1-12.2,16.5l2.1,2.2c3.4-1.9,6.7-3.7,9.9-5.8
		C188,139.5,188.2,138.4,186.6,134.2z"/>
	<path class="st0" d="M90.5,161.5c9.2,0.4,18.3,0.8,27.5,1.1c1.4,0.1,2.8-0.2,3.8-0.3c1.1-5.4,2-10.5,2.9-15.1
		c-0.6-0.2-1.2-0.5-1.8-0.7c-8.2,4.2-17.4,6.4-26.8,6.4c-2.6,0-5.2-0.2-7.7-0.5c-0.2,2.1-0.4,4.3-0.4,6.5
		C88,160.7,88.7,161.5,90.5,161.5z"/>
	<path class="st0" d="M161.4,57.1c-1.2-2.6-2.9-4.7-6.3-4.6c-3.7,0.2-7.3-0.2-11,0c-1.6,0.1-3.2,0.3-4.8,0.5
		c7.4,7.8,12.4,17.3,14.6,27.7c0.8-0.1,1.7-0.3,2.6-0.4c3.2-0.4,9-0.3,12.5-0.3c-0.8-3.6-1.4-7.1-2.5-10.5
		C165,65.3,163.2,61.2,161.4,57.1z"/>
	<path class="st0" d="M187.8,158.5c-0.6,0.2-1.2,0.7-1.6,1.3l2.5,2.6c1.1-1.5,2.1-2.9,3.2-4.4c-0.2-0.1-0.3-0.2-0.5-0.4
		C190.3,157.8,189,158,187.8,158.5z"/>
	<path class="st0" d="M57.2,138.2c-0.3,2.1-0.4,4.2-0.5,6.3c-0.2,8.6-1.5,6.2,5.9,9.6c0.4,0.2,0.8,0.4,1.3,0.5
		c6.8,2.8,13.9,4.6,21.4,6.1c-0.1-3,0-5.9,0.3-8.8C75.1,150.1,65.3,145.4,57.2,138.2z"/>
	<path class="st0" d="M195.7,95.6c1.6,3.2,3.3,6.3,4.9,9.5c0.3,0.6,0.5,1.3,0.8,2c-0.9-9.2-3.2-17.9-7.1-26.4
		c0.2,4.5,0.4,8.8,0.6,13.2C195,94.4,195.4,95,195.7,95.6z"/>
	<path class="st0" d="M142.3,182.3c2.8-3,5.3-6.2,7.5-9.5l-3.7-3.7c-4.7,3.1-9.6,6.4-14.6,9.8c2.8,1.4,5.5,2.9,8.2,4.1
		C140.4,183.1,141.8,182.8,142.3,182.3z"/>
	<path class="st0" d="M131.5,154.3c-1.7-1.7-2.7-3.7-3.1-6c-0.3-0.1-0.6-0.2-1-0.3c-0.9,4.7-1.8,9.2-2.7,14.1
		c4.4-0.4,8.6-1,12.8-1.7L131.5,154.3z"/>
	<path class="st0" d="M152.9,121.9c-2.5,1.6-5.1,3.2-7.7,4.8c1.2-0.3,2.4-0.5,3.5-0.5c2.4,0,4.5,0.7,6.3,1.9c-0.4-2-0.8-3.9-1.2-5.9
		C153.6,122.2,153.2,122,152.9,121.9z"/>
	<path class="st0" d="M169.5,119.4c-4.7-0.3-9.1-0.2-13.1,1.7c0.8,3.6,1.5,7,2.3,10.4l6.9,7C167.2,132.4,168.6,126,169.5,119.4z"/>
	<path class="st0" d="M148.8,132.4L148.8,132.4L148.8,132.4z"/>
	<path class="st0" d="M152.6,118.8c0,0.2,0.1,0,0.1-0.2c-0.4-1.2-0.9-2.4-1.3-3.5c-0.8,2.2-1.8,4.3-2.9,6.3
		C149.8,120.5,151.2,119.7,152.6,118.8z"/>
	<path class="st0" d="M91.8,186c0.5,0,0.9-0.2,1.5-0.3c-4.2-6.2-6.6-12.8-7.6-20c-0.2-1.5-0.7-2.1-2.1-2.4
		c-4.9-1.2-9.9-2.3-14.7-3.8c-4-1.2-7.8-3-12.1-4.6c0.7,3.7,1,7.3,2.1,10.6c1.7,5,3.7,10.1,7.3,14.2c1.1,1.3,2.6,2.7,4.2,3.3
		C77.2,185.4,84.4,186.3,91.8,186z"/>
	<path class="st0" d="M93.5,188.8c-7.1,0.3-14.1-0.1-21-2.2c7.3,8.8,32.6,16,39.6,13.1c-5.9-2-10.9-5.1-15-9.4
		C96,189.1,95,188.7,93.5,188.8z"/>
	<path class="st0" d="M129.6,180.3c-0.6-0.4-1.8-0.7-2.4-0.4c-7.1,3.3-14.4,5.8-22.1,7.2c-1.9,0.4-3.8,0.8-6,1.2
		c5.2,5.3,11.3,8.4,18.3,10c0.8,0.2,1.8-0.1,2.7-0.3c7.3-2.4,13.2-6.9,18.5-11.7C135.5,184.2,132.6,182.2,129.6,180.3z"/>
	<path class="st0" d="M54.2,156c-0.2-1.2-0.6-2.8-1.5-3.4c-5.5-3.4-10.6-7.1-14.9-12c2.6,16.6,15.8,34,24.3,38.1
		c-1.2-2-2.4-3.9-3.3-5.9C56.3,167.5,55,161.8,54.2,156z"/>
	<path class="st0" d="M53.7,149.8c-0.1-4.8,0.2-9.4,0.9-13.9c-7.3-7.2-12.5-16-15.3-25.7c-1.9,7.2-2.8,14.6-2.4,22.3
		c0.1,1,0.3,2,0.8,2.8C41.7,141.5,47.2,145.9,53.7,149.8z"/>
	<path class="st0" d="M190.7,141.9c-0.7,4.3-1.2,8.7-1.8,13.2c3.2-0.5,5.6-2.6,6.6-5.8c1.8-5.6,3.4-11.3,5-16.9
		c0.4-1.4,0.4-2.9,0.5-4.1c-3.1,3.6-6.1,7.1-9,10.7C191.4,139.8,190.8,140.9,190.7,141.9z"/>
	<path class="st0" d="M141.7,187.3c-5.1,4.8-10.5,9.1-16.8,12.4c5.4-0.4,10.8-1,16.1-2c2.7-0.5,5.3-1.4,7.7-2.6
		c3.7-1.9,5.7-5.4,7.3-9c-4.3,0.2-8.7,0.3-13,0.5C142.6,186.7,142,187,141.7,187.3z"/>
	<path class="st0" d="M160.9,183.9c-0.1,0-0.1,0.1-0.2,0.1c-0.4,0.3-0.8,0.7-1.1,1.1c-1.1,2.1-2.1,4.3-3.3,6.9
		c2.8-1.5,5.4-3,7.9-4.7L160.9,183.9z"/>
	<path class="st0" d="M112.1,36.5c9.3,2.6,17.9,7.5,25,14.4c2.5-0.5,5-0.9,7.5-1.2c3.9-0.5,7.9,0,12,0c-5.1-6.9-9.7-11-15.5-13.4
		c-6-2.5-12.4-2-18.6-1.7C119.1,34.8,115.7,35.6,112.1,36.5z"/>
	<path class="st0" d="M200.7,120.7c0.3-0.9,0.3-2,0.3-2.9c-0.2-6.1-2.8-11.5-5.1-16.9c-0.3-0.6-0.8-1.2-1.3-1.9
		c-0.9,3.8-1.5,7.5-2.7,10.9c-1.6,4.8-3.6,9.4-5.4,14.1c-0.3,0.7-0.5,1.7-0.2,2.3c1.4,3.3,3,6.6,4.5,9.9
		C194.9,131.9,198.9,127,200.7,120.7z"/>
	<path class="st0" d="M167.1,64.1c1.3,3.8,2.6,8.8,3.5,12.7c1,3.8,0.3,3.5,2.2,4.1c7.2,1.7,13.9,5.2,19.2,10.5
		c0.1-19.7-7.1-30.9-28.7-37.4C164.8,57.7,165.9,60.4,167.1,64.1z"/>
	<path class="st0" d="M182.5,155.9c0.3,0,0.5,0,0.8,0c0.6,0,1.5-0.4,1.6-0.9c1.1-4,2.1-8,3.1-11.9c-3.9,2.2-7.8,4.4-11.6,6.6
		L182.5,155.9z"/>
	<path class="st0" d="M36.9,94.1c0-1,0-2.1,0.1-3.1c-3.6,11.6-5,23.3-3.1,35.4c0.2-2,0.2-4,0.5-5.9c0.7-5.5,1.9-10.8,3.6-16
		C37.3,101.1,37,97.7,36.9,94.1z"/>
	<path class="st0" d="M161.9,50.7c5.1,1.9,10.3,3.7,14.6,5.3c-3.6-4.7-18.9-15.1-24.8-16.6c2.5,3,5.2,6.4,8.1,9.7
		C160.3,49.8,161.1,50.4,161.9,50.7z"/>
	<path class="st0" d="M106.8,35.2c4.4-0.9,9.2-1.9,17.7-3.1c0-0.2-2.5-0.6-4.5-0.6c-12.7-0.3-20.6,2.1-22.4,2.8
		C100.7,34.4,103.8,34.7,106.8,35.2z"/>
	<path class="st0" d="M157.8,180.7l-5.9-5.9c-2.2,3.1-4.5,6.2-7.1,9.6c3.8-0.6,7.4-0.9,10.9-1.7
		C156.4,182.5,157.4,181.6,157.8,180.7z"/>
</g>
<path class="st0" d="M173.4,187.7L135.9,150c-3.3-3.3,0.3-8.3,0.3-8.3l-7-6.5c-9.4,7.5-20.9,11.5-33,11.5c-14,0-27.2-5.4-37.1-15.2
	c-10.1-9.9-15.7-23.2-15.9-37.4C43,79.9,48.4,66.5,58.3,56.4s23.2-15.8,37.3-15.9c14.2-0.1,27.5,5.3,37.6,15.2s15.7,23.2,15.9,37.4
	c0.1,12.6-4.1,24.6-12.1,34.3l6.6,6.6c0,0,5.4-3.2,8.4-0.2l37.3,38c3.6,3.6,2.5,8.9-1.7,13C183.5,188.9,177,191.3,173.4,187.7z
	 M96.1,51.6c-0.1,0-0.3,0-0.4,0c-11.2,0.1-21.6,4.6-29.5,12.6c-7.8,8-12.1,18.6-12,29.8s4.6,21.7,12.5,29.6c7.9,7.7,18.3,12,29.3,12
	s21.4-4.3,29.3-12l0.4-0.4l0.1-0.1c7.8-8,12.1-18.6,12-29.8s-4.6-21.7-12.5-29.6C117.5,55.9,107.1,51.6,96.1,51.6z"/>
</svg>
