<?xml version="1.0" encoding="utf-8"?>
<!-- Generator: Adobe Illustrator 26.5.3, SVG Export Plug-In . SVG Version: 6.00 Build 0)  -->
<svg version="1.1" id="Layer_2_00000029046315544515301840000013736234372155946114_"
	 xmlns="http://www.w3.org/2000/svg" xmlns:xlink="http://www.w3.org/1999/xlink" x="0px" y="0px" viewBox="0 0 234.8 234.8"
	 style="enable-background:new 0 0 234.8 234.8;" xml:space="preserve">
<style type="text/css">
	.st0{fill:#E6F0F9;}
</style>
<g id="Layer_6">
	<path class="st0" d="M117.4,234.8C52.7,234.8,0,182.1,0,117.4S52.7,0,117.4,0s117.4,52.7,117.4,117.4S182.1,234.8,117.4,234.8
		L117.4,234.8z M117.4,10.6c-58.9,0-106.7,47.9-106.7,106.7s47.9,106.7,106.7,106.7s106.7-47.9,106.7-106.7S176.2,10.6,117.4,10.6z"
		/>
	<path class="st0" d="M76.8,156.9V56.5c0-2.8,2.3-5.1,5.1-5.1h102.5c2.8,0,5.1,2.3,5.1,5.1v99.3c0,14.1-11.5,25.6-25.6,25.6H61.5
		c-0.7,0-1.4-0.1-2-0.4C69.5,177.6,76.8,168.1,76.8,156.9L76.8,156.9z M121.7,69.2h-18.8c-2.8,0-5.1,2.3-5.1,5.1s2.3,5.1,5.1,5.1
		h18.8c2.8,0,5.1-2.3,5.1-5.1S124.6,69.2,121.7,69.2z M121.7,94.3h-18.8c-2.8,0-5.1,2.3-5.1,5.1s2.3,5.1,5.1,5.1h18.8
		c2.8,0,5.1-2.3,5.1-5.1S124.6,94.3,121.7,94.3z M102.9,155.8h61.5c2.8,0,5.1-2.3,5.1-5.1s-2.3-5.1-5.1-5.1h-61.5
		c-2.8,0-5.1,2.3-5.1,5.1C97.8,153.5,100.1,155.8,102.9,155.8z M102.9,130.2h61.5c2.8,0,5.1-2.3,5.1-5.1s-2.3-5.1-5.1-5.1h-61.5
		c-2.8,0-5.1,2.3-5.1,5.1C97.8,127.9,100.1,130.2,102.9,130.2z M135.8,99.2c0,2.9,2.6,5.3,5.8,5.3h21.9c3.2,0,5.8-2.4,5.8-5.3V74.5
		c0-2.9-2.6-5.3-5.8-5.3h-21.9c-3.2,0-5.8,2.4-5.8,5.3V99.2z"/>
	<path class="st0" d="M51.7,175.6L51.7,175.6c-10.3,0-18.6-8.3-18.6-18.6v-47.2c0-3.2,2.6-5.7,5.7-5.7h31.5V157
		C70.3,167.3,62,175.6,51.7,175.6L51.7,175.6z"/>
</g>
</svg>
