<?xml version="1.0" encoding="utf-8"?>
<!-- Generator: Adobe Illustrator 26.5.3, SVG Export Plug-In . SVG Version: 6.00 Build 0)  -->
<svg version="1.1" id="Layer_2_00000050627059370534044140000003696453054726101944_"
	 xmlns="http://www.w3.org/2000/svg" xmlns:xlink="http://www.w3.org/1999/xlink" x="0px" y="0px" viewBox="0 0 234.8 234.8"
	 style="enable-background:new 0 0 234.8 234.8;" xml:space="preserve">
<style type="text/css">
	.st0{fill:#E6F0F9;}
</style>
<g id="Layer_5">
	<path class="st0" d="M117.4,234.8C52.7,234.8,0,182.1,0,117.4S52.7,0,117.4,0s117.4,52.7,117.4,117.4S182.1,234.8,117.4,234.8
		L117.4,234.8z M117.4,10.6c-58.9,0-106.7,47.9-106.7,106.7s47.9,106.7,106.7,106.7s106.7-47.9,106.7-106.7S176.2,10.6,117.4,10.6z"
		/>
	<path class="st0" d="M181.3,182h-125c-3.3,0-6-2.7-6-6V55c0-3.3,2.7-6,6-6s6,2.7,6,6V170h119c3.3,0,6,2.7,6,6S184.7,182,181.3,182
		L181.3,182z"/>
	<path class="st0" d="M79.7,79.3H88c2.9,0,5.3,2.4,5.3,5.3V155c0,2.9-2.4,5.3-5.3,5.3h-8.3c-2.9,0-5.3-2.4-5.3-5.3V84.6
		C74.4,81.7,76.8,79.3,79.7,79.3z"/>
	<path class="st0" d="M110,47.4h8.3c2.9,0,5.3,2.4,5.3,5.3V155c0,2.9-2.4,5.3-5.3,5.3H110c-2.9,0-5.3-2.4-5.3-5.3V52.7
		C104.7,49.8,107.1,47.4,110,47.4z"/>
	<path class="st0" d="M171.7,79.7h8.3c2.9,0,5.3,2.4,5.3,5.3v70c0,2.9-2.4,5.3-5.3,5.3h-8.3c-2.9,0-5.3-2.4-5.3-5.3V85
		C166.4,82.1,168.8,79.7,171.7,79.7z"/>
	<path class="st0" d="M141,106.8h8.3c2.9,0,5.3,2.4,5.3,5.3v41.9c0,2.9-2.4,5.3-5.3,5.3H141c-2.9,0-5.3-2.4-5.3-5.3v-41.9
		C135.7,109.2,138.1,106.8,141,106.8z"/>
</g>
</svg>
