<?xml version="1.0" encoding="utf-8"?>
<!-- Generator: Adobe Illustrator 26.5.3, SVG Export Plug-In . SVG Version: 6.00 Build 0)  -->
<svg version="1.1" id="Layer_2_00000058588731255821856630000008116510377529842595_"
	 xmlns="http://www.w3.org/2000/svg" xmlns:xlink="http://www.w3.org/1999/xlink" x="0px" y="0px" viewBox="0 0 235.1 235.1"
	 style="enable-background:new 0 0 235.1 235.1;" xml:space="preserve">
<style type="text/css">
	.st0{fill:#E6F0F9;}
</style>
<g id="Layer_8">
	<path class="st0" d="M31.5,104.7c0,19.1,19.8,39.5,19.8,39.5c15.3,22.1,7.8,41.1,7.8,41.1c0.3,18.9,65.5,35.8,68.6,24.8
		c1.4-4.9,3.7-9.4,3.7-9.4c6.2-7.8,16.7-5.1,22.3-4.4c16.1,2,20.2-2.8,20.2-2.8c3.5-2.1,1.9-11.2,1.9-11.2c-1.3-4.7,0.8-6.9,2.1-8.8
		c3.5-5,1.5-7.3,1.5-7.3c-1.1-1.4-0.4-2.2-0.4-2.2c3.9-1.3,4.2-3.5,4.2-3.5l-0.1-7.2c-0.6-4.9,1.6-5.2,1.6-5.2c8.9-0.2,9.7-6,9.7-6
		c0.4-3.2-11.3-22.2-11.3-22.2c-5-9.7,2.1-15.5,2.6-20.6c2.2-23.2-5.6-37.3-16.1-48.6c-17.5-18.6-39.9-22.1-54.6-22
		c-37.6,0.3-52.9,12.3-64.4,25.2C26.4,81.1,31.5,104.7,31.5,104.7L31.5,104.7z M43,100.8c0-0.7,0.1-1.3,0.2-2
		c-0.2-5.5-0.6-19.5,15.3-37.3c9.6-10.8,21.9-21.3,57-21.6c13.1,0,31.6,3.2,46.1,18.6c5.4,5.7,7.9,10.5,6.8,21.5
		c-0.4,4.5-3.4,7.8-6.8,11.3c-10.6,10.8-30.1,4.2-45.1,12.2s-12.4,10.6-16.5,19.2c-4,8.5-8.9,16.6-21.9,16.2
		C59.5,138.2,43,121,43,100.8L43,100.8z"/>
	<path class="st0" d="M57.5,94.1c0.3,1.4,1,3.1,2.1,4.8l-3.8,5.2l7.2,7.3l5.1-3.8c1.7,1,3.1,1.7,4.8,2.1l1,6.2h10.3l1-6.2
		c1.7-0.7,3.4-1.4,4.8-2.1l5.2,3.5l7.2-7.3L99,98.6c1-1.7,1.7-3.1,2.1-4.8l6.2-1v-10l-5.8-0.7c-0.7-1.7-1-3.1-2.1-4.8l3.4-5.2
		l-7.2-7.3l-5.2,3.8c-1.7-1-3.1-1.7-4.8-2.1l-1-6.2h-9.9l-0.7,6.2c-1.4,0.3-3.1,1-4.8,2.1L64,64.7L56.8,72l3.8,5.2
		c-1,2.1-1.7,3.5-2.1,4.8l-6.2,1v10L57.5,94.1L57.5,94.1z M69.5,87.9c0-5.9,4.5-10.4,10.3-10.4S90.1,82,90.1,87.9
		s-4.5,10.4-10.3,10.4S69.5,93.7,69.5,87.9z"/>
	<path class="st0" d="M111.4,66.3c-0.2,1.1-0.2,2.4-0.1,3.9l-4.2,2.4l2.8,7.2l4.7-1c0.9,1.2,1.6,2.1,2.7,2.9l-1.2,4.6l7.1,3.2
		l2.6-3.9c1.4,0.1,2.8,0.1,3.9,0.1l2.5,3.9l7.2-2.8l-0.8-4.6c1.2-0.9,2.1-1.6,2.9-2.7l4.6,1.2l3.1-6.9l-3.8-2.3
		c0.1-1.4,0.2-2.4,0.1-3.9l3.9-2.5l-2.8-7.2l-4.7,1c-0.9-1.2-1.6-2.1-2.7-2.9l1.2-4.6l-6.9-3.1l-2.4,4c-1.1-0.2-2.4-0.2-3.9-0.1
		l-2.4-4.2l-7.2,2.8l1,4.7c-1.3,1.1-2.2,1.8-2.9,2.7l-4.6-1.2l-3.1,6.9L111.4,66.3L111.4,66.3z M121.5,65.8c1.8-4,6.2-5.7,10.3-3.9
		c4,1.8,5.7,6.2,3.9,10.3c-1.8,4-6.2,5.7-10.3,3.9S119.7,69.8,121.5,65.8z"/>
	<path class="st0" d="M117.6,235.1C52.7,235.1,0,182.4,0,117.6S52.7,0,117.6,0s117.6,52.7,117.6,117.6S182.4,235.1,117.6,235.1z
		 M117.6,10.7c-58.9,0-106.9,48-106.9,106.9s48,106.9,106.9,106.9s106.9-48,106.9-106.9S176.5,10.7,117.6,10.7L117.6,10.7z"/>
</g>
</svg>
