<?xml version="1.0" encoding="utf-8"?>
<!-- Generator: Adobe Illustrator 26.5.3, SVG Export Plug-In . SVG Version: 6.00 Build 0)  -->
<svg version="1.1" id="Layer_2_00000005952299743117795960000014091323519185556414_"
	 xmlns="http://www.w3.org/2000/svg" xmlns:xlink="http://www.w3.org/1999/xlink" x="0px" y="0px" viewBox="0 0 234.8 234.8"
	 style="enable-background:new 0 0 234.8 234.8;" xml:space="preserve">
<style type="text/css">
	.st0{fill:#E6F0F9;}
	.st1{fill-rule:evenodd;clip-rule:evenodd;fill:#E6F0F9;}
</style>
<g id="Layer_1-2">
	<path class="st0" d="M117.4,234.8C52.7,234.8,0,182.1,0,117.4S52.7,0,117.4,0s117.4,52.7,117.4,117.4S182.1,234.8,117.4,234.8
		L117.4,234.8z M117.4,10.6c-58.9,0-106.7,47.9-106.7,106.7s47.9,106.7,106.7,106.7s106.7-47.9,106.7-106.7S176.2,10.6,117.4,10.6z"
		/>
	<circle class="st0" cx="117.1" cy="182.3" r="15.2"/>
	<path class="st1" d="M87.8,90.2c0-13.7,11.8-26.8,29.3-26.8s29.3,13.1,29.3,26.8c0,9.9-5.5,15-14.9,20.7c-1.1,0.6-2.3,1.3-3.6,2.1
		l0,0c-3.7,2.2-8.1,4.7-11.4,7.3c-4.9,3.8-10.6,10-10.6,19.5c0,0,0,8.2,0,8.2c0.1,6.1,5,11,11.1,11s11-4.8,11.1-10.9
		c0-0.1,0-8.2,0-8.3v0c0.2-0.3,0.7-0.9,2-2c2.1-1.6,4.3-2.9,7.4-4.7l0,0c1.6-0.9,3.4-2,5.5-3.2c10.8-6.6,25.6-17.4,25.6-39.7
		c0-26.7-22.6-49-51.6-49s-51.6,22.3-51.6,49c0,6.1,5,11.1,11.1,11.1S87.7,96.4,87.8,90.2L87.8,90.2z"/>
</g>
</svg>
