<?xml version="1.0" encoding="utf-8"?>
<!-- Generator: Adobe Illustrator 26.5.3, SVG Export Plug-In . SVG Version: 6.00 Build 0)  -->
<svg version="1.1" id="Layer_2_00000122702479478640237300000017140910808391792559_"
	 xmlns="http://www.w3.org/2000/svg" xmlns:xlink="http://www.w3.org/1999/xlink" x="0px" y="0px" viewBox="0 0 234.8 234.8"
	 style="enable-background:new 0 0 234.8 234.8;" xml:space="preserve">
<style type="text/css">
	.st0{fill:#E6F0F9;}
</style>
<g id="Layer_6">
	<path class="st0" d="M117.4,234.8C52.7,234.8,0,182.1,0,117.4S52.7,0,117.4,0s117.4,52.7,117.4,117.4S182.1,234.8,117.4,234.8
		L117.4,234.8z M117.4,10.6c-58.9,0-106.7,47.9-106.7,106.7s47.9,106.7,106.7,106.7s106.7-47.9,106.7-106.7S176.2,10.6,117.4,10.6z"
		/>
	<path class="st0" d="M32.5,145.9c-1-10.7-1.8-20.8-1.8-26.7c0-17.4,11.9-26.6,26.6-26.6H79c3.2,0,6.3,0.6,9.1,1.6
		c1.2,3.3,3.1,6.7,5.4,9.3c-13.9,3.9-25.4,13.9-25.4,31.6l3.6,59.3C53.6,183.5,39.5,166.4,32.5,145.9L32.5,145.9z M48,69.2
		c0,11.1,9,20.2,20.2,20.2s20.2-9,20.2-20.2s-9-20.2-20.2-20.2S48,58.1,48,69.2z M96.2,93.1c2.3,4.5,5.9,8.2,10.5,10.6
		c1.8,0.9,3.6,1.6,5.6,2c1.7,0.4,3.4,0.6,5.2,0.6s3.5-0.2,5.2-0.6c2-0.4,3.8-1.1,5.6-2c4.5-2.3,8.2-6,10.5-10.6
		c0.9-1.8,1.5-3.6,2-5.6c0.3-1.6,0.5-3.2,0.5-4.9c0-13.1-10.6-23.7-23.7-23.7S93.7,69.5,93.7,82.6c0,1.7,0.2,3.4,0.5,4.9
		C94.7,89.5,95.3,91.4,96.2,93.1L96.2,93.1z M120,166.2c0-14.2,4.3-25.1,12.6-32.4c5.2-4.6,11.8-7.5,19.6-8.8
		c-2.9-2.8-5.4-6.1-7.2-9.7c-0.6-1.1-1-2.3-1.5-3.4c-4.2-1.7-9-2.5-14-2.5h-24.2c-16.4,0-29.7,7.9-29.7,29.7
		c0,15.1,2.1,43.3,3.3,59.1c11.7,5.6,24.7,8.7,38.5,8.7c1.5,0,2.9,0,4.4-0.1C120.8,192,120,176.6,120,166.2L120,166.2z M206.2,133.4
		c-4.4-1.5-9.4-2.2-14.6-2.2H163c-19.4,0-35,9.3-35,35c0,10.3,0.8,25.7,1.8,40.5C168.4,201.4,199.3,171.5,206.2,133.4L206.2,133.4z
		 M177.3,71.8c15.4,0,27.9,12.5,27.9,27.9c0,2-0.2,3.9-0.6,5.8c-0.5,2.3-1.3,4.5-2.3,6.6c-2.7,5.3-7,9.7-12.3,12.4
		c-2.1,1.1-4.3,1.9-6.6,2.4c-1.9,0.4-4,0.7-6.1,0.7s-4.1-0.2-6.1-0.7c-2.3-0.5-4.5-1.3-6.6-2.4c-5.3-2.7-9.6-7.1-12.3-12.4
		c-1-2.1-1.8-4.3-2.3-6.6c-0.4-1.9-0.6-3.8-0.6-5.8C149.4,84.3,161.9,71.8,177.3,71.8L177.3,71.8z"/>
</g>
</svg>
